<svg width="100" height="130" viewBox="0 0 100 130" fill="none" xmlns="http://www.w3.org/2000/svg">
<g clip-path="url(#clip0_1560_3)">
<path d="M49.9995 130.295C49.6755 130.295 49.352 130.292 49.0293 130.287C9.19017 129.61 -13.5803 84.1737 9.09951 51.2289L41.1596 4.6578C43.1679 1.74066 46.4715 0 49.9995 0C53.5275 0 56.8311 1.74066 58.8392 4.6578L90.8995 51.2287C113.58 84.1737 90.8086 129.61 50.97 130.287C50.647 130.292 50.3235 130.295 49.9995 130.295Z" fill="#752E93"/>
<path d="M58.853 129.544C56.3098 129.986 53.6792 130.241 50.9691 130.287C50.6467 130.292 50.3232 130.295 49.9992 130.295C49.6131 130.295 49.2277 130.291 48.8434 130.283C9.08986 129.476 -13.5334 84.1048 9.09895 51.2287L41.1593 4.6578C43.1676 1.74066 46.4712 0 49.9992 0C50.0346 0 50.0697 0.000254483 50.105 0.000508966C55.1474 0.0503876 58.0464 5.8101 55.1777 9.98056L26.807 51.2287C5.66991 81.9328 24.0108 123.485 58.853 129.544Z" fill="black"/>
<path d="M80.9854 101.973C80.9854 106.666 77.2026 110.47 72.5357 110.47C67.8688 110.47 64.0859 106.666 64.0859 101.973C64.0859 97.2799 67.8688 93.4756 72.5357 93.4756C77.2026 93.4753 80.9854 97.2799 80.9854 101.973ZM83.8021 76.4805C80.691 76.4805 78.1688 79.0166 78.1688 82.1455C78.1688 85.2744 80.6907 87.8106 83.8021 87.8106C86.9132 87.8106 89.4354 85.2744 89.4354 82.1455C89.4354 79.0166 86.9132 76.4805 83.8021 76.4805Z" fill="#D7A5EC"/>
</g>
<defs>
<clipPath id="clip0_1560_3">
<rect width="100" height="130" fill="white"/>
</clipPath>
</defs>
</svg>
